STARTFONT 2.1
FONT -Monotype-Bembo-Medium-I-Normal--14-140-72-72-P-64-ISO8859-1
SIZE 14 72 72
FONTBOUNDINGBOX 21 17 -5 -4

STARTPROPERTIES 22
FOUNDRY "Monotype"
FAMILY_NAME "Bembo"
WEIGHT_NAME "Medium"
SLANT "I"
SETWIDTH_NAME "Normal"
ADD_STYLE_NAME ""
PIXEL_SIZE 14
POINT_SIZE 140
RESOLUTION_X 72
RESOLUTION_Y 72
SPACING "P"
AVERAGE_WIDTH 64
CHARSET_REGISTRY "ISO8859"
CHARSET_ENCODING "1"
FULL_NAME "Bembo-Italic"
COPYRIGHT "Copyright (c) 1991 The Monotype Corporation plc."
WEIGHT 10
X_HEIGHT 6
QUAD_WIDTH 8
DEFAULT_CHAR 32
FONT_DESCENT 4
FONT_ASCENT 12
ENDPROPERTIES

CHARS 190

STARTCHAR space
ENCODING 32
SWIDTH 278 0
DWIDTH 4 0
BBX 1 1 0 0
BITMAP
00
ENDCHAR

STARTCHAR exclam
ENCODING 33
SWIDTH 292 0
DWIDTH 4 0
BBX 3 9 2 0
BITMAP
20
20
40
40
40
40
40
00
80
ENDCHAR

STARTCHAR quotedbl
ENCODING 34
SWIDTH 417 0
DWIDTH 6 0
BBX 4 4 2 5
BITMAP
50
90
90
90
ENDCHAR

STARTCHAR numbersign
ENCODING 35
SWIDTH 668 0
DWIDTH 9 0
BBX 8 10 1 -1
BITMAP
12
22
22
FF
22
24
FF
44
44
4C
ENDCHAR

STARTCHAR dollar
ENCODING 36
SWIDTH 458 0
DWIDTH 6 0
BBX 5 10 1 -1
BITMAP
10
38
78
70
30
50
D0
F0
70
40
ENDCHAR

STARTCHAR percent
ENCODING 37
SWIDTH 823 0
DWIDTH 12 0
BBX 10 9 2 0
BITMAP
60C0
9180
9300
A600
ECC0
1940
3240
6240
C180
ENDCHAR

STARTCHAR ampersand
ENCODING 38
SWIDTH 708 0
DWIDTH 10 0
BBX 9 9 1 0
BITMAP
3C00
6200
2000
3080
4780
8900
8100
C200
7C00
ENDCHAR

STARTCHAR quoteright
ENCODING 39
SWIDTH 292 0
DWIDTH 4 0
BBX 2 4 2 5
BITMAP
40
40
40
80
ENDCHAR

STARTCHAR parenleft
ENCODING 40
SWIDTH 281 0
DWIDTH 4 0
BBX 4 12 1 -3
BITMAP
10
20
20
40
40
80
80
80
80
80
80
40
ENDCHAR

STARTCHAR parenright
ENCODING 41
SWIDTH 281 0
DWIDTH 4 0
BBX 4 12 0 -3
BITMAP
10
10
10
10
10
10
10
10
20
60
40
80
ENDCHAR

STARTCHAR asterisk
ENCODING 42
SWIDTH 500 0
DWIDTH 7 0
BBX 6 7 1 2
BITMAP
10
90
7C
30
D0
10
08
ENDCHAR

STARTCHAR plus
ENCODING 43
SWIDTH 667 0
DWIDTH 9 0
BBX 7 7 1 1
BITMAP
10
10
10
FE
10
10
10
ENDCHAR

STARTCHAR comma
ENCODING 44
SWIDTH 292 0
DWIDTH 4 0
BBX 2 4 1 -2
BITMAP
40
40
40
80
ENDCHAR

STARTCHAR minus
ENCODING 45
SWIDTH 667 0
DWIDTH 9 0
BBX 7 1 1 4
BITMAP
FE
ENDCHAR

STARTCHAR period
ENCODING 46
SWIDTH 292 0
DWIDTH 4 0
BBX 1 1 2 0
BITMAP
80
ENDCHAR

STARTCHAR slash
ENCODING 47
SWIDTH 458 0
DWIDTH 4 0
BBX 6 12 0 -3
BITMAP
04
08
08
18
10
10
20
20
40
40
80
80
ENDCHAR

STARTCHAR zero
ENCODING 48
SWIDTH 510 0
DWIDTH 7 0
BBX 6 9 1 0
BITMAP
38
64
44
C4
84
84
88
98
70
ENDCHAR

STARTCHAR one
ENCODING 49
SWIDTH 510 0
DWIDTH 7 0
BBX 4 9 2 0
BITMAP
10
F0
20
20
20
20
20
40
E0
ENDCHAR

STARTCHAR two
ENCODING 50
SWIDTH 510 0
DWIDTH 7 0
BBX 6 9 1 0
BITMAP
3C
64
04
04
0C
18
30
68
F8
ENDCHAR

STARTCHAR three
ENCODING 51
SWIDTH 510 0
DWIDTH 7 0
BBX 6 9 1 0
BITMAP
1C
24
0C
08
38
08
08
10
E0
ENDCHAR

STARTCHAR four
ENCODING 52
SWIDTH 510 0
DWIDTH 7 0
BBX 6 9 1 0
BITMAP
0C
18
38
28
48
FC
10
10
10
ENDCHAR

STARTCHAR five
ENCODING 53
SWIDTH 510 0
DWIDTH 7 0
BBX 6 9 1 0
BITMAP
3C
20
20
78
08
08
08
10
E0
ENDCHAR

STARTCHAR six
ENCODING 54
SWIDTH 510 0
DWIDTH 7 0
BBX 6 9 2 0
BITMAP
04
18
20
78
C8
88
88
98
70
ENDCHAR

STARTCHAR seven
ENCODING 55
SWIDTH 510 0
DWIDTH 7 0
BBX 6 9 2 0
BITMAP
FC
88
08
10
10
20
20
40
C0
ENDCHAR

STARTCHAR eight
ENCODING 56
SWIDTH 510 0
DWIDTH 7 0
BBX 6 9 1 0
BITMAP
38
44
44
38
30
58
88
88
70
ENDCHAR

STARTCHAR nine
ENCODING 57
SWIDTH 510 0
DWIDTH 7 0
BBX 6 9 1 0
BITMAP
1C
24
44
44
3C
08
10
20
C0
ENDCHAR

STARTCHAR colon
ENCODING 58
SWIDTH 292 0
DWIDTH 4 0
BBX 2 6 2 0
BITMAP
40
00
00
00
00
80
ENDCHAR

STARTCHAR semicolon
ENCODING 59
SWIDTH 292 0
DWIDTH 4 0
BBX 3 8 1 -2
BITMAP
20
00
00
00
40
40
40
80
ENDCHAR

STARTCHAR less
ENCODING 60
SWIDTH 667 0
DWIDTH 9 0
BBX 7 8 1 1
BITMAP
02
0C
30
C0
C0
30
0C
02
ENDCHAR

STARTCHAR equal
ENCODING 61
SWIDTH 667 0
DWIDTH 9 0
BBX 7 4 1 3
BITMAP
FE
00
00
FE
ENDCHAR

STARTCHAR greater
ENCODING 62
SWIDTH 667 0
DWIDTH 9 0
BBX 7 8 1 1
BITMAP
80
60
18
06
06
18
60
80
ENDCHAR

STARTCHAR question
ENCODING 63
SWIDTH 396 0
DWIDTH 6 0
BBX 4 9 1 0
BITMAP
60
10
10
10
20
40
40
00
80
ENDCHAR

STARTCHAR at
ENCODING 64
SWIDTH 917 0
DWIDTH 13 0
BBX 12 13 1 -3
BITMAP
0F80
3040
6020
46A0
8920
9920
9120
9740
9D90
8010
4020
20C0
1F00
ENDCHAR

STARTCHAR A
ENCODING 65
SWIDTH 698 0
DWIDTH 10 0
BBX 9 9 0 0
BITMAP
0300
0300
0500
0900
1F00
3100
2100
6100
E380
ENDCHAR

STARTCHAR B
ENCODING 66
SWIDTH 615 0
DWIDTH 9 0
BBX 8 9 1 0
BITMAP
7E
11
21
3E
22
21
61
63
FE
ENDCHAR

STARTCHAR C
ENCODING 67
SWIDTH 729 0
DWIDTH 10 0
BBX 9 9 2 0
BITMAP
1F80
3080
4080
C000
8000
8000
C100
4300
3F00
ENDCHAR

STARTCHAR D
ENCODING 68
SWIDTH 760 0
DWIDTH 11 0
BBX 10 9 0 0
BITMAP
7F00
1180
1040
2040
2040
2040
20C0
6180
FE00
ENDCHAR

STARTCHAR E
ENCODING 69
SWIDTH 625 0
DWIDTH 9 0
BBX 9 9 0 0
BITMAP
3F80
1100
1000
2100
3E00
2200
2000
6100
FF00
ENDCHAR

STARTCHAR F
ENCODING 70
SWIDTH 563 0
DWIDTH 8 0
BBX 8 9 1 0
BITMAP
3F
11
10
22
3E
22
20
40
F0
ENDCHAR

STARTCHAR G
ENCODING 71
SWIDTH 781 0
DWIDTH 11 0
BBX 10 9 2 0
BITMAP
1F00
3080
4080
C000
8000
83C0
C180
6180
3F00
ENDCHAR

STARTCHAR H
ENCODING 72
SWIDTH 760 0
DWIDTH 11 0
BBX 11 9 0 0
BITMAP
38E0
1040
1040
3040
3F80
2080
2080
6080
F3C0
ENDCHAR

STARTCHAR I
ENCODING 73
SWIDTH 323 0
DWIDTH 5 0
BBX 5 9 1 0
BITMAP
38
10
10
20
20
20
20
60
F0
ENDCHAR

STARTCHAR J
ENCODING 74
SWIDTH 302 0
DWIDTH 4 0
BBX 8 12 -1 -3
BITMAP
0F
06
04
04
04
04
0C
08
08
08
10
E0
ENDCHAR

STARTCHAR K
ENCODING 75
SWIDTH 708 0
DWIDTH 10 0
BBX 11 9 1 0
BITMAP
39E0
1180
1200
2C00
3800
2400
2200
6300
F180
ENDCHAR

STARTCHAR L
ENCODING 76
SWIDTH 583 0
DWIDTH 8 0
BBX 8 9 0 0
BITMAP
38
10
10
20
20
20
20
61
FF
ENDCHAR

STARTCHAR M
ENCODING 77
SWIDTH 854 0
DWIDTH 12 0
BBX 13 9 0 0
BITMAP
3838
1830
1860
28A0
29A0
2920
2E40
4640
E4E0
ENDCHAR

STARTCHAR N
ENCODING 78
SWIDTH 771 0
DWIDTH 11 0
BBX 12 9 1 0
BITMAP
6070
3020
2840
2C40
2440
4240
4140
4180
E080
ENDCHAR

STARTCHAR O
ENCODING 79
SWIDTH 792 0
DWIDTH 11 0
BBX 10 9 2 0
BITMAP
1E00
2180
4080
C0C0
80C0
8080
C180
4300
3E00
ENDCHAR

STARTCHAR P
ENCODING 80
SWIDTH 563 0
DWIDTH 8 0
BBX 8 9 1 0
BITMAP
7E
13
21
21
22
2C
40
40
F0
ENDCHAR

STARTCHAR Q
ENCODING 81
SWIDTH 792 0
DWIDTH 11 0
BBX 10 11 2 -2
BITMAP
1F00
6180
4080
C0C0
80C0
8080
C180
4300
3C00
0C00
03C0
ENDCHAR

STARTCHAR R
ENCODING 82
SWIDTH 698 0
DWIDTH 10 0
BBX 10 9 0 0
BITMAP
3E00
1100
1100
2300
3C00
2400
2600
6300
F1C0
ENDCHAR

STARTCHAR S
ENCODING 83
SWIDTH 531 0
DWIDTH 7 0
BBX 7 9 1 0
BITMAP
3E
22
22
20
18
84
84
C4
78
ENDCHAR

STARTCHAR T
ENCODING 84
SWIDTH 656 0
DWIDTH 9 0
BBX 9 9 2 0
BITMAP
FF80
8900
0800
1000
1000
1000
1000
3000
7800
ENDCHAR

STARTCHAR U
ENCODING 85
SWIDTH 729 0
DWIDTH 10 0
BBX 10 9 2 0
BITMAP
F1C0
4080
4100
4100
4100
8100
8100
C200
7C00
ENDCHAR

STARTCHAR V
ENCODING 86
SWIDTH 698 0
DWIDTH 10 0
BBX 9 9 2 0
BITMAP
E380
4100
4300
4400
4400
4800
5000
6000
4000
ENDCHAR

STARTCHAR W
ENCODING 87
SWIDTH 958 0
DWIDTH 13 0
BBX 13 9 2 0
BITMAP
E718
4210
4210
4620
4A40
5280
7280
6300
4200
ENDCHAR

STARTCHAR X
ENCODING 88
SWIDTH 688 0
DWIDTH 10 0
BBX 11 9 0 0
BITMAP
39E0
1080
0B00
0600
0C00
1200
2100
4100
E3C0
ENDCHAR

STARTCHAR Y
ENCODING 89
SWIDTH 625 0
DWIDTH 9 0
BBX 9 9 2 0
BITMAP
E380
4200
2200
2C00
1800
1000
1000
3000
7800
ENDCHAR

STARTCHAR Z
ENCODING 90
SWIDTH 688 0
DWIDTH 10 0
BBX 10 9 1 0
BITMAP
3FC0
2180
2300
0400
0800
1000
2080
4180
FF00
ENDCHAR

STARTCHAR bracketleft
ENCODING 91
SWIDTH 302 0
DWIDTH 4 0
BBX 5 12 1 -3
BITMAP
38
20
20
20
40
40
40
40
40
80
80
E0
ENDCHAR

STARTCHAR backslash
ENCODING 92
SWIDTH 219 0
DWIDTH 3 0
BBX 2 9 1 0
BITMAP
80
80
80
C0
40
40
40
40
40
ENDCHAR

STARTCHAR bracketright
ENCODING 93
SWIDTH 302 0
DWIDTH 4 0
BBX 5 12 0 -3
BITMAP
38
08
08
08
10
10
10
10
20
20
20
E0
ENDCHAR

STARTCHAR asciicircum
ENCODING 94
SWIDTH 427 0
DWIDTH 6 0
BBX 6 5 1 4
BITMAP
30
30
48
48
84
ENDCHAR

STARTCHAR underscore
ENCODING 95
SWIDTH 500 0
DWIDTH 7 0
BBX 7 1 0 -3
BITMAP
FE
ENDCHAR

STARTCHAR quoteleft
ENCODING 96
SWIDTH 292 0
DWIDTH 4 0
BBX 2 4 3 5
BITMAP
40
80
80
80
ENDCHAR

STARTCHAR a
ENCODING 97
SWIDTH 406 0
DWIDTH 6 0
BBX 5 6 1 0
BITMAP
38
48
90
90
B8
D0
ENDCHAR

STARTCHAR b
ENCODING 98
SWIDTH 406 0
DWIDTH 6 0
BBX 5 9 1 0
BITMAP
40
40
40
50
68
C8
90
90
E0
ENDCHAR

STARTCHAR c
ENCODING 99
SWIDTH 271 0
DWIDTH 4 0
BBX 4 6 1 0
BITMAP
30
40
80
80
90
E0
ENDCHAR

STARTCHAR d
ENCODING 100
SWIDTH 438 0
DWIDTH 6 0
BBX 5 9 1 0
BITMAP
08
18
08
38
48
90
90
B8
D0
ENDCHAR

STARTCHAR e
ENCODING 101
SWIDTH 344 0
DWIDTH 5 0
BBX 4 6 1 0
BITMAP
30
50
E0
80
90
E0
ENDCHAR

STARTCHAR f
ENCODING 102
SWIDTH 229 0
DWIDTH 3 0
BBX 9 12 -2 -3
BITMAP
0380
0400
0400
1E00
0800
0800
0800
0800
1000
1000
1000
E000
ENDCHAR

STARTCHAR g
ENCODING 103
SWIDTH 375 0
DWIDTH 5 0
BBX 7 9 0 -3
BITMAP
1E
24
24
24
18
20
78
84
F8
ENDCHAR

STARTCHAR h
ENCODING 104
SWIDTH 458 0
DWIDTH 6 0
BBX 6 9 1 0
BITMAP
60
40
40
58
78
68
48
94
98
ENDCHAR

STARTCHAR i
ENCODING 105
SWIDTH 240 0
DWIDTH 3 0
BBX 4 9 2 0
BITMAP
10
00
40
E0
60
20
40
50
60
ENDCHAR

STARTCHAR j
ENCODING 106
SWIDTH 240 0
DWIDTH 3 0
BBX 6 12 -1 -3
BITMAP
04
00
00
08
38
08
10
10
10
10
20
C0
ENDCHAR

STARTCHAR k
ENCODING 107
SWIDTH 458 0
DWIDTH 6 0
BBX 6 9 1 0
BITMAP
20
40
40
78
64
78
60
B0
9C
ENDCHAR

STARTCHAR l
ENCODING 108
SWIDTH 229 0
DWIDTH 3 0
BBX 3 9 1 0
BITMAP
60
40
40
40
40
40
80
A0
C0
ENDCHAR

STARTCHAR m
ENCODING 109
SWIDTH 677 0
DWIDTH 9 0
BBX 10 6 2 0
BITMAP
2C80
F780
3680
6480
48C0
4980
ENDCHAR

STARTCHAR n
ENCODING 110
SWIDTH 469 0
DWIDTH 7 0
BBX 6 6 1 0
BITMAP
58
F8
68
48
8C
98
ENDCHAR

STARTCHAR o
ENCODING 111
SWIDTH 396 0
DWIDTH 6 0
BBX 5 6 1 0
BITMAP
30
58
88
90
90
E0
ENDCHAR

STARTCHAR p
ENCODING 112
SWIDTH 438 0
DWIDTH 6 0
BBX 7 9 0 -3
BITMAP
1C
7A
32
22
24
38
20
40
E0
ENDCHAR

STARTCHAR q
ENCODING 113
SWIDTH 417 0
DWIDTH 6 0
BBX 5 9 1 -3
BITMAP
38
48
90
90
B0
D0
30
20
70
ENDCHAR

STARTCHAR r
ENCODING 114
SWIDTH 271 0
DWIDTH 4 0
BBX 5 6 2 0
BITMAP
28
F0
20
20
40
40
ENDCHAR

STARTCHAR s
ENCODING 115
SWIDTH 302 0
DWIDTH 4 0
BBX 4 6 0 0
BITMAP
30
40
40
20
20
E0
ENDCHAR

STARTCHAR t
ENCODING 116
SWIDTH 260 0
DWIDTH 4 0
BBX 3 8 1 0
BITMAP
60
40
E0
40
80
80
A0
C0
ENDCHAR

STARTCHAR u
ENCODING 117
SWIDTH 469 0
DWIDTH 7 0
BBX 7 6 2 0
BITMAP
24
E4
24
2C
56
6C
ENDCHAR

STARTCHAR v
ENCODING 118
SWIDTH 406 0
DWIDTH 6 0
BBX 5 6 1 0
BITMAP
48
C8
48
50
60
40
ENDCHAR

STARTCHAR w
ENCODING 119
SWIDTH 604 0
DWIDTH 8 0
BBX 8 6 0 0
BITMAP
49
C9
49
5B
6E
4C
ENDCHAR

STARTCHAR x
ENCODING 120
SWIDTH 490 0
DWIDTH 7 0
BBX 7 6 0 0
BITMAP
64
6A
10
30
B4
C8
ENDCHAR

STARTCHAR y
ENCODING 121
SWIDTH 438 0
DWIDTH 6 0
BBX 6 9 0 -3
BITMAP
44
A4
28
38
30
20
60
40
E0
ENDCHAR

STARTCHAR z
ENCODING 122
SWIDTH 500 0
DWIDTH 7 0
BBX 6 6 0 0
BITMAP
7C
04
30
40
64
98
ENDCHAR

STARTCHAR braceleft
ENCODING 123
SWIDTH 396 0
DWIDTH 6 0
BBX 6 13 2 -4
BITMAP
0C
10
20
20
20
C0
40
40
40
80
80
80
40
ENDCHAR

STARTCHAR bar
ENCODING 124
SWIDTH 510 0
DWIDTH 8 0
BBX 4 12 2 -3
BITMAP
10
10
30
20
20
20
40
40
40
40
80
80
ENDCHAR

STARTCHAR braceright
ENCODING 125
SWIDTH 396 0
DWIDTH 6 0
BBX 6 12 0 -3
BITMAP
08
04
08
08
08
0C
10
10
20
20
20
C0
ENDCHAR

STARTCHAR asciitilde
ENCODING 126
SWIDTH 542 0
DWIDTH 8 0
BBX 7 2 2 5
BITMAP
72
9C
ENDCHAR

STARTCHAR exclamdown
ENCODING 161
SWIDTH 292 0
DWIDTH 4 0
BBX 3 9 1 -3
BITMAP
20
00
40
40
40
40
40
80
80
ENDCHAR

STARTCHAR cent
ENCODING 162
SWIDTH 271 0
DWIDTH 4 0
BBX 4 12 1 -3
BITMAP
20
20
20
30
40
C0
C0
F0
C0
80
80
80
ENDCHAR

STARTCHAR sterling
ENCODING 163
SWIDTH 729 0
DWIDTH 10 0
BBX 10 12 1 -3
BITMAP
01C0
0200
0200
0400
0400
0800
0800
1000
7C00
2080
7880
8700
ENDCHAR

STARTCHAR currency
ENCODING 164
SWIDTH 667 0
DWIDTH 9 0
BBX 6 6 2 1
BITMAP
FC
CC
84
84
CC
FC
ENDCHAR

STARTCHAR yen
ENCODING 165
SWIDTH 500 0
DWIDTH 7 0
BBX 9 9 0 0
BITMAP
7380
2200
7F00
1C00
FE00
1000
1000
2000
7000
ENDCHAR

STARTCHAR brokenbar
ENCODING 166
SWIDTH 510 0
DWIDTH 8 0
BBX 4 12 2 -3
BITMAP
10
10
10
20
20
00
00
40
40
40
80
80
ENDCHAR

STARTCHAR section
ENCODING 167
SWIDTH 479 0
DWIDTH 7 0
BBX 8 12 0 -3
BITMAP
07
18
28
28
28
24
14
14
14
14
18
E0
ENDCHAR

STARTCHAR dieresis
ENCODING 168
SWIDTH 333 0
DWIDTH 5 0
BBX 3 1 2 7
BITMAP
A0
ENDCHAR

STARTCHAR copyright
ENCODING 169
SWIDTH 760 0
DWIDTH 11 0
BBX 10 9 1 0
BITMAP
1E00
6F80
5180
A040
A040
A040
5180
6F80
1E00
ENDCHAR

STARTCHAR ordfeminine
ENCODING 170
SWIDTH 260 0
DWIDTH 4 0
BBX 3 4 1 5
BITMAP
60
A0
A0
E0
ENDCHAR

STARTCHAR guillemotleft
ENCODING 171
SWIDTH 438 0
DWIDTH 6 0
BBX 5 5 1 1
BITMAP
50
48
48
50
A0
ENDCHAR

STARTCHAR logicalnot
ENCODING 172
SWIDTH 667 0
DWIDTH 9 0
BBX 7 4 1 2
BITMAP
FE
02
02
02
ENDCHAR

STARTCHAR hyphen
ENCODING 173
SWIDTH 333 0
DWIDTH 5 0
BBX 3 1 1 2
BITMAP
E0
ENDCHAR

STARTCHAR registered
ENCODING 174
SWIDTH 760 0
DWIDTH 11 0
BBX 10 9 1 0
BITMAP
1E00
7F80
5280
9C40
9440
9240
7980
6180
1E00
ENDCHAR

STARTCHAR macron
ENCODING 175
SWIDTH 333 0
DWIDTH 5 0
BBX 4 1 2 8
BITMAP
F0
ENDCHAR

STARTCHAR degree
ENCODING 176
SWIDTH 396 0
DWIDTH 6 0
BBX 5 4 1 5
BITMAP
70
88
88
70
ENDCHAR

STARTCHAR plusminus
ENCODING 177
SWIDTH 667 0
DWIDTH 9 0
BBX 7 9 1 0
BITMAP
10
10
10
FE
10
10
10
00
FE
ENDCHAR

STARTCHAR twosuperior
ENCODING 178
SWIDTH 313 0
DWIDTH 4 0
BBX 4 6 -4 3
BITMAP
60
50
20
20
60
E0
ENDCHAR

STARTCHAR threesuperior
ENCODING 179
SWIDTH 313 0
DWIDTH 4 0
BBX 3 6 -4 3
BITMAP
60
A0
60
20
20
C0
ENDCHAR

STARTCHAR acute
ENCODING 180
SWIDTH 333 0
DWIDTH 5 0
BBX 3 3 2 6
BITMAP
60
C0
80
ENDCHAR

STARTCHAR mu
ENCODING 181
SWIDTH 500 0
DWIDTH 7 0
BBX 8 9 0 -3
BITMAP
12
22
26
24
6F
76
80
80
80
ENDCHAR

STARTCHAR paragraph
ENCODING 182
SWIDTH 448 0
DWIDTH 7 0
BBX 7 12 1 -3
BITMAP
3E
7C
F4
F4
FC
E8
28
28
30
50
50
E0
ENDCHAR

STARTCHAR periodcentered
ENCODING 183
SWIDTH 292 0
DWIDTH 4 0
BBX 1 1 2 3
BITMAP
80
ENDCHAR

STARTCHAR cedilla
ENCODING 184
SWIDTH 333 0
DWIDTH 5 0
BBX 2 3 1 -3
BITMAP
40
40
C0
ENDCHAR

STARTCHAR onesuperior
ENCODING 185
SWIDTH 313 0
DWIDTH 4 0
BBX 2 6 -5 3
BITMAP
40
C0
40
40
80
C0
ENDCHAR

STARTCHAR ordmasculine
ENCODING 186
SWIDTH 260 0
DWIDTH 4 0
BBX 3 4 2 5
BITMAP
60
A0
A0
C0
ENDCHAR

STARTCHAR guillemotright
ENCODING 187
SWIDTH 438 0
DWIDTH 6 0
BBX 5 5 1 1
BITMAP
28
50
A0
50
50
ENDCHAR

STARTCHAR onequarter
ENCODING 188
SWIDTH 823 0
DWIDTH 11 0
BBX 11 9 3 0
BITMAP
4060
C080
4100
4280
8480
C980
1380
2080
4100
ENDCHAR

STARTCHAR onehalf
ENCODING 189
SWIDTH 823 0
DWIDTH 11 0
BBX 11 9 3 0
BITMAP
4060
C080
4100
4380
8540
C880
1080
2180
4380
ENDCHAR

STARTCHAR threequarters
ENCODING 190
SWIDTH 823 0
DWIDTH 11 0
BBX 12 9 4 0
BITMAP
6030
A040
6080
2140
2240
C4C0
09C0
1040
2080
ENDCHAR

STARTCHAR questiondown
ENCODING 191
SWIDTH 396 0
DWIDTH 6 0
BBX 4 9 1 -3
BITMAP
10
00
20
20
60
80
80
80
60
ENDCHAR

STARTCHAR Agrave
ENCODING 192
SWIDTH 698 0
DWIDTH 10 0
BBX 9 13 0 0
BITMAP
0200
0100
0100
0000
0300
0300
0500
0900
1F00
3100
2100
6100
E380
ENDCHAR

STARTCHAR Aacute
ENCODING 193
SWIDTH 698 0
DWIDTH 10 0
BBX 10 13 0 0
BITMAP
00C0
0180
0100
0000
0300
0300
0500
0900
1F00
3100
2100
6100
E380
ENDCHAR

STARTCHAR Acircumflex
ENCODING 194
SWIDTH 698 0
DWIDTH 10 0
BBX 9 13 0 0
BITMAP
0080
0180
0280
0000
0300
0300
0500
0900
1F00
3100
2100
6100
E380
ENDCHAR

STARTCHAR Atilde
ENCODING 195
SWIDTH 698 0
DWIDTH 10 0
BBX 10 12 0 0
BITMAP
0340
02C0
0000
0300
0300
0500
0900
1F00
3100
2100
6100
E380
ENDCHAR

STARTCHAR Adieresis
ENCODING 196
SWIDTH 698 0
DWIDTH 10 0
BBX 9 11 0 0
BITMAP
0280
0000
0300
0300
0500
0900
1F00
3100
2100
6100
E380
ENDCHAR

STARTCHAR Aring
ENCODING 197
SWIDTH 698 0
DWIDTH 10 0
BBX 9 13 0 0
BITMAP
0380
0280
0380
0000
0300
0300
0500
0900
1F00
3100
2100
6100
E380
ENDCHAR

STARTCHAR AE
ENCODING 198
SWIDTH 948 0
DWIDTH 13 0
BBX 14 9 0 0
BITMAP
03FC
0388
0580
0908
0FF0
1110
2100
4308
E7F0
ENDCHAR

STARTCHAR Ccedilla
ENCODING 199
SWIDTH 729 0
DWIDTH 10 0
BBX 9 12 2 -3
BITMAP
1F80
3080
4080
C000
8000
8000
C100
4300
3F00
1000
1000
3000
ENDCHAR

STARTCHAR Egrave
ENCODING 200
SWIDTH 625 0
DWIDTH 9 0
BBX 9 13 0 0
BITMAP
0400
0200
0200
0000
3F80
1100
1000
2100
3E00
2200
2000
6100
FF00
ENDCHAR

STARTCHAR Eacute
ENCODING 201
SWIDTH 625 0
DWIDTH 9 0
BBX 9 13 0 0
BITMAP
0180
0300
0200
0000
3F80
1100
1000
2100
3E00
2200
2000
6100
FF00
ENDCHAR

STARTCHAR Ecircumflex
ENCODING 202
SWIDTH 625 0
DWIDTH 9 0
BBX 9 13 0 0
BITMAP
0100
0300
0500
0000
3F80
1100
1000
2100
3E00
2200
2000
6100
FF00
ENDCHAR

STARTCHAR Edieresis
ENCODING 203
SWIDTH 625 0
DWIDTH 9 0
BBX 9 11 0 0
BITMAP
0500
0000
3F80
1100
1000
2100
3E00
2200
2000
6100
FF00
ENDCHAR

STARTCHAR Igrave
ENCODING 204
SWIDTH 323 0
DWIDTH 5 0
BBX 5 13 1 0
BITMAP
10
08
08
00
38
10
10
20
20
20
20
60
F0
ENDCHAR

STARTCHAR Iacute
ENCODING 205
SWIDTH 323 0
DWIDTH 5 0
BBX 7 13 1 0
BITMAP
06
0C
08
00
38
10
10
20
20
20
20
60
F0
ENDCHAR

STARTCHAR Icircumflex
ENCODING 206
SWIDTH 323 0
DWIDTH 5 0
BBX 6 13 1 0
BITMAP
04
0C
14
00
38
10
10
20
20
20
20
60
F0
ENDCHAR

STARTCHAR Idieresis
ENCODING 207
SWIDTH 323 0
DWIDTH 5 0
BBX 6 11 1 0
BITMAP
14
00
38
10
10
20
20
20
20
60
F0
ENDCHAR

STARTCHAR Eth
ENCODING 208
SWIDTH 760 0
DWIDTH 11 0
BBX 10 9 0 0
BITMAP
7F00
1180
3040
2040
F840
2040
20C0
6180
FE00
ENDCHAR

STARTCHAR Ntilde
ENCODING 209
SWIDTH 771 0
DWIDTH 11 0
BBX 12 12 1 0
BITMAP
0340
02C0
0000
6070
3020
2840
2C40
2440
4240
4140
4180
E080
ENDCHAR

STARTCHAR Ograve
ENCODING 210
SWIDTH 792 0
DWIDTH 11 0
BBX 10 13 2 0
BITMAP
0400
0200
0200
0000
1E00
2180
4080
C0C0
80C0
8080
C180
4300
3E00
ENDCHAR

STARTCHAR Oacute
ENCODING 211
SWIDTH 792 0
DWIDTH 11 0
BBX 10 13 2 0
BITMAP
0180
0300
0200
0000
1E00
2180
4080
C0C0
80C0
8080
C180
4300
3E00
ENDCHAR

STARTCHAR Ocircumflex
ENCODING 212
SWIDTH 792 0
DWIDTH 11 0
BBX 10 13 2 0
BITMAP
0100
0300
0500
0000
1E00
2180
4080
C0C0
80C0
8080
C180
4300
3E00
ENDCHAR

STARTCHAR Otilde
ENCODING 213
SWIDTH 792 0
DWIDTH 11 0
BBX 10 12 2 0
BITMAP
0680
0580
0000
1E00
2180
4080
C0C0
80C0
8080
C180
4300
3E00
ENDCHAR

STARTCHAR Odieresis
ENCODING 214
SWIDTH 792 0
DWIDTH 11 0
BBX 10 11 2 0
BITMAP
0500
0000
1E00
2180
4080
C0C0
80C0
8080
C180
4300
3E00
ENDCHAR

STARTCHAR multiply
ENCODING 215
SWIDTH 668 0
DWIDTH 9 0
BBX 7 7 1 1
BITMAP
82
44
28
10
28
44
86
ENDCHAR

STARTCHAR Oslash
ENCODING 216
SWIDTH 792 0
DWIDTH 11 0
BBX 10 10 2 0
BITMAP
0040
1E80
2180
4280
C4C0
8CC0
9880
D180
6300
7E00
ENDCHAR

STARTCHAR Ugrave
ENCODING 217
SWIDTH 729 0
DWIDTH 10 0
BBX 10 13 2 0
BITMAP
0400
0200
0200
0000
F1C0
4080
4100
4100
4100
8100
8100
C200
7C00
ENDCHAR

STARTCHAR Uacute
ENCODING 218
SWIDTH 729 0
DWIDTH 10 0
BBX 10 13 2 0
BITMAP
0300
0600
0400
0000
F1C0
4080
4100
4100
4100
8100
8100
C200
7C00
ENDCHAR

STARTCHAR Ucircumflex
ENCODING 219
SWIDTH 729 0
DWIDTH 10 0
BBX 10 13 2 0
BITMAP
0200
0600
0A00
0000
F1C0
4080
4100
4100
4100
8100
8100
C200
7C00
ENDCHAR

STARTCHAR Udieresis
ENCODING 220
SWIDTH 729 0
DWIDTH 10 0
BBX 10 11 2 0
BITMAP
0500
0000
F1C0
4080
4100
4100
4100
8100
8100
C200
7C00
ENDCHAR

STARTCHAR Yacute
ENCODING 221
SWIDTH 625 0
DWIDTH 9 0
BBX 9 13 2 0
BITMAP
0300
0600
0400
0000
E380
4200
2200
2C00
1800
1000
1000
3000
7800
ENDCHAR

STARTCHAR Thorn
ENCODING 222
SWIDTH 563 0
DWIDTH 8 0
BBX 8 9 1 0
BITMAP
78
10
3E
23
23
22
7C
40
F0
ENDCHAR

STARTCHAR germandbls
ENCODING 223
SWIDTH 438 0
DWIDTH 6 0
BBX 9 12 -2 -3
BITMAP
0380
0480
0480
0B00
0900
0900
0900
0900
1600
1000
1000
E000
ENDCHAR

STARTCHAR agrave
ENCODING 224
SWIDTH 406 0
DWIDTH 6 0
BBX 5 10 1 0
BITMAP
20
10
10
00
38
48
90
90
B8
D0
ENDCHAR

STARTCHAR aacute
ENCODING 225
SWIDTH 406 0
DWIDTH 6 0
BBX 5 10 1 0
BITMAP
18
30
20
00
38
48
90
90
B8
D0
ENDCHAR

STARTCHAR acircumflex
ENCODING 226
SWIDTH 406 0
DWIDTH 6 0
BBX 5 10 1 0
BITMAP
08
18
28
00
38
48
90
90
B8
D0
ENDCHAR

STARTCHAR atilde
ENCODING 227
SWIDTH 406 0
DWIDTH 6 0
BBX 5 9 1 0
BITMAP
68
58
00
38
48
90
90
B8
D0
ENDCHAR

STARTCHAR adieresis
ENCODING 228
SWIDTH 406 0
DWIDTH 6 0
BBX 5 8 1 0
BITMAP
28
00
38
48
90
90
B8
D0
ENDCHAR

STARTCHAR aring
ENCODING 229
SWIDTH 406 0
DWIDTH 6 0
BBX 5 10 1 0
BITMAP
38
28
38
00
38
48
90
90
B8
D0
ENDCHAR

STARTCHAR ae
ENCODING 230
SWIDTH 573 0
DWIDTH 8 0
BBX 8 6 1 0
BITMAP
3F
49
8E
90
B0
CE
ENDCHAR

STARTCHAR ccedilla
ENCODING 231
SWIDTH 271 0
DWIDTH 4 0
BBX 4 9 1 -3
BITMAP
30
40
80
80
90
E0
40
40
C0
ENDCHAR

STARTCHAR egrave
ENCODING 232
SWIDTH 344 0
DWIDTH 5 0
BBX 4 10 1 0
BITMAP
20
10
10
00
30
50
E0
80
90
E0
ENDCHAR

STARTCHAR eacute
ENCODING 233
SWIDTH 344 0
DWIDTH 5 0
BBX 5 10 1 0
BITMAP
18
30
20
00
30
50
E0
80
90
E0
ENDCHAR

STARTCHAR ecircumflex
ENCODING 234
SWIDTH 344 0
DWIDTH 5 0
BBX 4 10 1 0
BITMAP
10
30
50
00
30
50
E0
80
90
E0
ENDCHAR

STARTCHAR edieresis
ENCODING 235
SWIDTH 344 0
DWIDTH 5 0
BBX 5 8 1 0
BITMAP
28
00
30
50
E0
80
90
E0
ENDCHAR

STARTCHAR igrave
ENCODING 236
SWIDTH 240 0
DWIDTH 3 0
BBX 4 10 2 0
BITMAP
20
10
10
00
20
E0
20
20
50
60
ENDCHAR

STARTCHAR iacute
ENCODING 237
SWIDTH 240 0
DWIDTH 3 0
BBX 5 10 2 0
BITMAP
18
30
20
00
20
E0
20
20
50
60
ENDCHAR

STARTCHAR icircumflex
ENCODING 238
SWIDTH 240 0
DWIDTH 3 0
BBX 4 10 2 0
BITMAP
10
30
50
00
20
E0
20
20
50
60
ENDCHAR

STARTCHAR idieresis
ENCODING 239
SWIDTH 240 0
DWIDTH 3 0
BBX 5 8 2 0
BITMAP
28
00
20
E0
20
20
50
60
ENDCHAR

STARTCHAR eth
ENCODING 240
SWIDTH 417 0
DWIDTH 6 0
BBX 5 9 1 0
BITMAP
20
38
10
38
58
88
90
90
E0
ENDCHAR

STARTCHAR ntilde
ENCODING 241
SWIDTH 469 0
DWIDTH 7 0
BBX 6 9 1 0
BITMAP
34
2C
00
58
F8
68
48
8C
98
ENDCHAR

STARTCHAR ograve
ENCODING 242
SWIDTH 396 0
DWIDTH 6 0
BBX 5 10 1 0
BITMAP
20
10
10
00
30
58
88
90
90
E0
ENDCHAR

STARTCHAR oacute
ENCODING 243
SWIDTH 396 0
DWIDTH 6 0
BBX 5 10 1 0
BITMAP
18
30
20
00
30
58
88
90
90
E0
ENDCHAR

STARTCHAR ocircumflex
ENCODING 244
SWIDTH 396 0
DWIDTH 6 0
BBX 5 10 1 0
BITMAP
08
18
28
00
30
58
88
90
90
E0
ENDCHAR

STARTCHAR otilde
ENCODING 245
SWIDTH 396 0
DWIDTH 6 0
BBX 5 9 1 0
BITMAP
68
58
00
30
58
88
90
90
E0
ENDCHAR

STARTCHAR odieresis
ENCODING 246
SWIDTH 396 0
DWIDTH 6 0
BBX 5 8 1 0
BITMAP
28
00
30
58
88
90
90
E0
ENDCHAR

STARTCHAR divide
ENCODING 247
SWIDTH 668 0
DWIDTH 9 0
BBX 7 7 1 1
BITMAP
10
00
00
FE
00
00
10
ENDCHAR

STARTCHAR oslash
ENCODING 248
SWIDTH 396 0
DWIDTH 6 0
BBX 5 6 1 0
BITMAP
38
58
A8
B0
D0
E0
ENDCHAR

STARTCHAR ugrave
ENCODING 249
SWIDTH 469 0
DWIDTH 7 0
BBX 7 10 2 0
BITMAP
10
08
08
00
24
E4
24
2C
56
6C
ENDCHAR

STARTCHAR uacute
ENCODING 250
SWIDTH 469 0
DWIDTH 7 0
BBX 7 10 2 0
BITMAP
06
0C
08
00
24
E4
24
2C
56
6C
ENDCHAR

STARTCHAR ucircumflex
ENCODING 251
SWIDTH 469 0
DWIDTH 7 0
BBX 7 10 2 0
BITMAP
04
0C
14
00
24
E4
24
2C
56
6C
ENDCHAR

STARTCHAR udieresis
ENCODING 252
SWIDTH 469 0
DWIDTH 7 0
BBX 7 8 2 0
BITMAP
14
00
24
E4
24
2C
56
6C
ENDCHAR

STARTCHAR yacute
ENCODING 253
SWIDTH 438 0
DWIDTH 6 0
BBX 6 13 0 -3
BITMAP
0C
18
10
00
44
A4
28
38
30
20
60
40
E0
ENDCHAR

STARTCHAR thorn
ENCODING 254
SWIDTH 438 0
DWIDTH 6 0
BBX 7 12 0 -3
BITMAP
30
10
10
1C
1A
32
22
24
38
40
40
E0
ENDCHAR

STARTCHAR ydieresis
ENCODING 255
SWIDTH 438 0
DWIDTH 6 0
BBX 6 11 0 -3
BITMAP
14
00
44
A4
28
38
30
20
60
40
E0
ENDCHAR
ENDFONT
